<svg viewBox="0 0 200 232" xmlns="http://www.w3.org/2000/svg">
  <path d="M22 22 H178 V118 C178 174 140 204 100 222 C60 204 22 174 22 118 Z" fill="#C8102E"/>
  <g fill="#ffffff">
    <path d="M 106.0,31.0 L 108.4,39.1 L 116.2,35.9 L 111.3,42.8 L 118.7,46.9 L 110.3,47.4 L 111.6,55.7 L 106.0,49.5 L 100.4,55.7 L 101.7,47.4 L 93.3,46.9 L 100.7,42.8 L 95.8,35.9 L 103.6,39.1 Z"/>
    <path d="M 82.0,45.0 L 84.0,51.8 L 90.6,49.1 L 86.5,55.0 L 92.7,58.4 L 85.6,58.9 L 86.8,65.9 L 82.0,60.6 L 77.2,65.9 L 78.4,58.9 L 71.3,58.4 L 77.5,55.0 L 73.4,49.1 L 80.0,51.8 Z"/>
    <path d="M 130.0,45.0 L 132.0,51.8 L 138.6,49.1 L 134.5,55.0 L 140.7,58.4 L 133.6,58.9 L 134.8,65.9 L 130.0,60.6 L 125.2,65.9 L 126.4,58.9 L 119.3,58.4 L 125.5,55.0 L 121.4,49.1 L 128.0,51.8 Z"/>
    <path d="M100 78 C84 78 74 92 74 110 C74 140 92 162 100 184 C108 162 126 140 126 110 C126 92 116 78 100 78 Z M100 96 C108 96 112 104 112 112 C112 128 104 142 100 156 C96 142 88 128 88 112 C88 104 92 96 100 96 Z"/>
  </g>
</svg>
