<svg viewBox="0 0 200 232" xmlns="http://www.w3.org/2000/svg" fill="#ffffff">
  <path d="M22 22 H178 V118 C178 174 140 204 100 222 C60 204 22 174 22 118 Z" fill="none" stroke="#ffffff" stroke-width="7"/>
  <path d="M34 34 H166 V116 C166 164 134 190 100 206 C66 190 34 164 34 116 Z" fill="none" stroke="#ffffff" stroke-width="3" opacity=".6"/>
  <g>
    <path d="M 58.0,57.0 L 59.6,62.6 L 65.0,60.4 L 61.7,65.2 L 66.8,68.0 L 61.0,68.4 L 61.9,74.1 L 58.0,69.8 L 54.1,74.1 L 55.0,68.4 L 49.2,68.0 L 54.3,65.2 L 51.0,60.4 L 56.4,62.6 Z"/>
    <path d="M 82.0,39.0 L 84.0,45.8 L 90.6,43.1 L 86.5,49.0 L 92.7,52.4 L 85.6,52.9 L 86.8,59.9 L 82.0,54.6 L 77.2,59.9 L 78.4,52.9 L 71.3,52.4 L 77.5,49.0 L 73.4,43.1 L 80.0,45.8 Z"/>
    <path d="M 106.0,31.0 L 108.4,39.1 L 116.2,35.9 L 111.3,42.8 L 118.7,46.9 L 110.3,47.4 L 111.6,55.7 L 106.0,49.5 L 100.4,55.7 L 101.7,47.4 L 93.3,46.9 L 100.7,42.8 L 95.8,35.9 L 103.6,39.1 Z"/>
    <path d="M 130.0,39.0 L 132.0,45.8 L 138.6,43.1 L 134.5,49.0 L 140.7,52.4 L 133.6,52.9 L 134.8,59.9 L 130.0,54.6 L 125.2,59.9 L 126.4,52.9 L 119.3,52.4 L 125.5,49.0 L 121.4,43.1 L 128.0,45.8 Z"/>
    <path d="M 150.0,59.0 L 151.6,64.6 L 157.0,62.4 L 153.7,67.2 L 158.8,70.0 L 153.0,70.4 L 153.9,76.1 L 150.0,71.8 L 146.1,76.1 L 147.0,70.4 L 141.2,70.0 L 146.3,67.2 L 143.0,62.4 L 148.4,64.6 Z"/>
  </g>
</svg>
